<svg t="1728886076376" class="icon" viewBox="0 0 2569 1024" version="1.1" xmlns="http://www.w3.org/2000/svg" p-id="5276" width="200" height="200"><path d="M343.999589 169.397462c0.204798-0.860153 0.348157-1.474547 0.389117-1.802224l1.044471-7.557055-47.349351-0.266238c-42.78235-0.245758-55.868957 0-57.036307 1.085431-0.573435 0.511996-15.339387 56.626711-41.65596 158.268073-12.554132 48.475741-23.12172 87.203087-23.490357 86.056217s-15.400827-56.503832-33.402591-122.981338c-18.001765-66.477506-33.095394-121.240553-33.54595-121.691109-0.614395-0.614395-57.978379-0.901112-104.406138-0.511996-6.737862 0.061439-10.485669-13.107087 60.026361 211.126496 9.768876 31.047412 24.370989 74.997112 32.46052 97.668276 9.338799 26.132254 15.994742 46.32536 20.541263 63.180254 8.028091 32.071403 8.314808 52.162109 6.574023 75.631987-2.027502 27.094806-2.31422 218.437793-0.348157 221.632646 1.515507 2.457579 91.217132 3.583969 99.716259 1.269749 1.351668-0.368637 2.27326-1.699825 2.867175-8.929203 2.109422-6.225866 2.29374-30.965493 2.29374-133.733245l0-131.275666 5.73435-18.104164c3.747808-11.857818 13.209486-42.987149 20.991819-69.221802s17.203051-57.609742 20.930379-69.774757c33.832668-110.324807 66.129349-218.82691 66.989501-225.011816l0.696314-5.058516z" fill="#444444" p-id="5277"></path><path d="M846.123891 328.648566l-0.02048 6.840261-1.064951 0.02048-0.593915 188.987808-0.573435 183.232977-14.663553 14.929791c-16.424818 16.711536-29.593344 23.10124-41.492122 20.111186-12.963728-3.256292-12.636051 1.802224-13.721481-214.771905l-1.003511-199.350598-94.309585 0 0 6.860741-1.085431 0 0 216.287412c0 231.729198 0 231.606319 11.755418 254.871398 9.359279 18.53424 23.019321 27.565842 46.386799 30.678775l0 0c30.781174 4.095965 63.999447-9.850795 94.760141-39.812776l13.373324-13.025167 0 22.445886c0 19.394392 0.552955 22.609725 4.075485 23.572276 5.75483 1.597426 77.167973 1.699825 84.888867 0.122879l6.389705-1.310709 0-6.635463 1.085431-0.225278 0-495.099723-94.186706 1.249269z" fill="#444444" p-id="5278"></path><path d="M606.878598 426.337323c-8.929203-38.338229-25.681698-64.122326-53.22706-81.939772-43.273866-27.995918-92.712159-30.965493-138.586963-8.294328-33.423071 16.506737-54.947365 43.908741-66.067909 84.090154-1.331189 4.792279-2.29374 8.806324-3.031014 14.806912-2.826216 14.192517-3.153893 35.348175-3.891166 133.958523-1.12639 151.919328 0.614395 170.003012 19.64015 204.511513 18.657119 33.853148 57.404944 58.654213 99.5729 63.774169 12.69749 1.535987 38.420148-0.860153 53.22706-4.956117 33.62787-9.31832 65.863111-35.90113 80.117068-66.067909 6.164427-13.025167 9.871275-22.097729 12.124055-38.645426 4.177884-22.609725 4.464601-59.166209 4.464601-152.369884 0-118.864893-0.389117-131.869581-4.341722-148.847354zM499.339047 736.012728c-7.905212 6.021068-21.729092 8.642485-32.972515 6.246346-8.662965-1.843184-20.336464-15.421307-23.940913-27.79112-4.485081-15.441787-4.812758-229.988413-0.962552-272.05397 6.369225-21.053258 24.186671-32.050923 43.642503-26.808088 15.155069 4.075485 22.916922 13.578123 27.340564 33.464031 3.276772 14.745473 3.665888 33.136354 2.969574 141.24934-0.450556 71.699861-0.716794 106.740838-3.051494 125.561795-2.375659 11.878297-6.328265 15.05267-13.004688 20.152146z" fill="#444444" p-id="5279"></path><path d="M2300.375649 534.143111l45.567606 0-0.716794-41.287323c-0.696314-37.867193-1.269749-42.208915-6.328265-52.469307-7.987131-16.22002-19.763029-23.408438-38.440628-23.408438-22.445886 0-36.679363 10.854306-43.396745 33.136354-2.867175 9.482158-5.857229 74.689915-3.706848 80.301386 1.20831 3.153893 7.720893 3.706848 47.021674 3.706848z" fill="#444444" p-id="5280"></path><path d="M1995.77924 440.243122c-6.082507-12.246934-17.38737-18.268002-30.514936-17.796966-10.219432 0.368637-21.565254 4.6694-32.480999 13.004688l-8.13049 6.184907 0 296.588798 8.13049 6.184907c18.431841 14.049159 38.665906 17.039213 52.612666 7.700413 5.509072-3.686368 9.113521-8.785844 11.919257-16.854894 3.645409-10.526629 3.973086-24.002353 3.48157-148.765435-0.491516-130.046877-0.778233-137.70633-5.017557-146.225937z" fill="#444444" p-id="5281"></path><path d="M2560.858519 306.632757c-9.072562-108.85026-16.301939-144.157475-38.747825-189.540763-29.736703-60.108281-72.682892-91.790567-133.876604-98.753707-47.308391-5.386193-225.319014-12.963728-390.038231-16.629616-285.181537-6.328265-754.046607 5.857229-813.929609 21.176137-27.668241 7.086019-48.434782 19.107675-70.020515 40.611489-37.846713 37.662395-60.394998 91.688168-69.44708 166.398563-20.684621 170.596926-21.135177 376.726346-1.18783 553.508179 8.581046 76.041583 26.234653 125.438916 59.411967 166.152805 20.684621 25.41546 56.360473 47.001194 88.268038 53.431858 22.384447 4.526041 134.409079 10.792867 297.592309 16.670576 24.30955 0.880632 88.657154 2.375659 143.031085 3.338211 113.294381 2.007023 321.615142 0.819193 440.705313-2.519018 80.117068-2.252781 226.199646-8.171449 253.49925-10.280871 7.679934-0.593915 25.4769-1.720305 39.546538-2.519018 47.267432-2.662377 77.352292-12.574611 105.593968-34.75426 36.556484-28.712712 64.8596-81.796413 76.819816-144.034596 11.304862-58.899971 18.882397-163.777145 20.418384-282.846837 1.290229-99.490981-0.430076-153.168597-7.618494-239.409132zM1425.252329 267.188617l-52.981302 0.655354-2.3347 565.140718-45.936243 0.573435c-35.532493 0.491516-46.30488-0.04096-47.165033-2.3347-0.614395-1.617906-1.351668-129.022886-1.679345-283.154034l-0.573435-280.245899-103.484546-1.310709 0-88.308997 305.825198 1.228789 1.310709 87.059728-52.981302 0.655354zM1750.205682 591.117979l0 243.034061-83.721517 0 0-25.579299c0-19.251034-0.737274-25.579299-2.969574-25.579299-1.638386 0-9.21592 6.348745-16.854894 14.090118-16.547697 16.813935-36.167368 30.371578-52.899383 36.638404-34.651861 12.963728-67.583416 5.406673-81.612095-18.759518-12.840849-22.118209-13.086607-27.053846-13.086607-256.325466l0-210.553061 83.660077 0 0.655354 198.265167c0.614395 194.824557 0.716794 198.388046 5.386193 206.334218 6.184907 10.526629 15.605625 13.352845 30.596856 9.2364 8.826804-2.416619 14.827392-6.696902 29.142788-20.930379l18.022244-17.960805 0-374.944601 83.721517 0 0 243.034061zM2076.735981 799.41826c-7.372736 16.424818-23.797554 32.501479-37.273278 36.474565-35.163856 10.38327-63.364573 1.925103-95.927491-28.712712-10.096553-9.502638-19.517271-17.223531-20.930379-17.223531-1.720305 0-2.621417 7.454656-2.621417 22.097729l0 22.097729-83.721517 0 0-655.845855 83.721517 0 0 106.986596c0 58.838532 0.778233 106.986596 1.740785 106.986596s9.789355-7.802813 19.619671-17.305451c22.630205-21.831491 41.553561-31.395569 65.555914-33.218273 42.80283-3.235812 68.32069 18.800478 80.014669 69.119403 3.645409 15.687544 3.993566 33.62787 3.993566 179.075573 0 177.17095-0.02048 177.908223-14.172038 209.447151zM2430.975481 702.18006c-0.737274 18.227043-2.949095 39.136942-4.935637 46.509678-11.63254 43.171467-42.638992 73.727363-87.428365 86.261015-60.313079 16.875374-126.708665-10.772387-153.209557-63.815129-14.868352-29.777663-15.400827-35.696332-15.400827-181.184995 0-118.619135 0.409596-133.15981 4.218844-149.35935 10.751907-45.792884 37.396157-75.427188 82.492727-91.872486 13.066127-4.771799 26.705689-7.208898 40.345251-7.495615 48.680539-1.003511 96.992442 25.169703 117.226507 67.808694 13.660042 28.753672 15.359867 41.062045 16.711536 122.100705l1.228789 72.682892-178.502138 1.228789-0.655354 48.844378c-0.921592 68.894125 3.706848 90.090742 22.323007 102.624394 15.646585 10.547109 39.669417 9.748396 52.756024-1.740785 12.267414-10.772387 15.728504-22.343487 16.936814-56.114715l1.085431-29.654784 86.199575 0-1.372148 33.136354z" fill="#444444" p-id="5282"></path></svg>